<?xml version="1.0" encoding="utf-8"?>
<!-- Generator: Adobe Illustrator 23.0.6, SVG Export Plug-In . SVG Version: 6.00 Build 0)  -->
<svg version="1.1" id="Layer_1" xmlns="http://www.w3.org/2000/svg" xmlns:xlink="http://www.w3.org/1999/xlink" x="0px" y="0px"
	 viewBox="0 0 460 460" style="enable-background:new 0 0 460 460;" xml:space="preserve">
<style type="text/css">
	.st0{fill:#3947DD;}
</style>
<g id="XMLID_28_">
	<g>
		<path class="st0" d="M460,159.3c-13.6,0-57.9,40.4-78.9,60.3c-33.9-9.4-81.9-19.6-132.4-25.4L235,139.3c-32.7,0-60.4,20.9-70.7,50
			C29.2,190.7,0,239.3,0,239.3s21.5,35.9,113.2,46.8c-8.4-13.7-13.2-29.7-13.2-46.8h20c0,19.2,7.8,36.5,20.3,49.2
			c9.3,0.5,19.2,0.8,29.7,0.8c0.5,0,0.9,0,1.4,0c0.4,1.4,0.8,2.7,1.3,4c8.1,21.7,32.3,32.8,54,24.7l-11.3-30.4
			c29.3-2.1,58.5-6,85.6-10.8c3.3,12.9,15.1,22.5,29,22.5v-28c23.8-4.9,44.9-10.3,61.5-15.3c17.9,11.9,51.3,33.3,58.5,33.3
			c0,0-20-20-20-50S460,159.3,460,159.3z M60,249.3c-5.5,0-10-4.5-10-10s4.5-10,10-10s10,4.5,10,10S65.5,249.3,60,249.3z"/>
	</g>
</g>
</svg>
